Coordinates
version=1
nRows=4
nColumns=107
inDegrees=yes

Units are S.I. units (second, meters, Newtons, ...)
If the header above contains a line with 'inDegrees', this indicates whether rotational values are in degrees (yes) or radians (no).

endheader
time	sternoclavicular_r2	sternoclavicular_r3	unrotscap_r3	unrotscap_r2	acromioclavicular_r2	acromioclavicular_r3	acromioclavicular_r1	unrothum_r1	unrothum_r3	unrothum_r2	elv_angle	shoulder_elv	shoulder1_r2	shoulder_rot	elbow_flexion	pro_sup	deviation	flexion	proximal_distal_r1	proximal_distal_r3	cmc_flexion	cmc_abduction	mp_flexion	ip_flexion	mcp2_flexion	mcp2_abduction	pm2_flexion	md2_flexion	mcp3_flexion	mcp3_abduction	pm3_flexion	md3_flexion	mcp4_flexion	mcp4_abduction	pm4_flexion	md4_flexion	mcp5_flexion	mcp5_abduction	pm5_flexion	md5_flexion	bicpt_tx	bicpt_ty	bicpt_tz	bicpt2_tx	bicpt2_ty	bicpt2_tz	ptpt_tx	ptpt_ty	ptpt_tz	FCUpt_tx	FCUpt_ty	FCUpt_tz	EDCpt_tx	EDCpt_ty	EDCpt_tz	APLpt_tx	APLpt_ty	APLpt_tz	FPLpt_tx	FPLpt_ty	FPLpt_tz	FPLpt2_tx	FPLpt2_ty	FPLpt2_tz	PEC1pt2_tx	PEC1pt2_ty	PEC1pt2_tz	PEC1pt3_tx	PEC1pt3_ty	PEC1pt3_tz	PEC2pt2_tx	PEC2pt2_ty	PEC2pt2_tz	PEC2pt3_tx	PEC2pt3_ty	PEC2pt3_tz	PEC3pt2_tx	PEC3pt2_ty	PEC3pt2_tz	PEC3pt3_tx	PEC3pt3_ty	PEC3pt3_tz	DELT2pt2a_tx	DELT2pt2a_ty	DELT2pt2a_tz	DELT2pt2_tx	DELT2pt2_ty	DELT2pt2_tz	LAT1pt2_tx	LAT1pt2_ty	LAT1pt2_tz	LAT1pt3_tx	LAT1pt3_ty	LAT1pt3_tz	LAT2pt2_tx	LAT2pt2_ty	LAT2pt2_tz	LAT2pt3_tx	LAT2pt3_ty	LAT2pt3_tz	LAT3pt2_tx	LAT3pt2_ty	LAT3pt2_tz	LAT3pt3_tx	LAT3pt3_ty	LAT3pt3_tz
      0.36666667	     -0.32296712	      0.13679363	     -0.13679363	      0.32296712	     -0.06539427	      0.52849350	      0.23755419	     -0.23755419	     -0.52849350	      0.06539427	     98.30764649	     76.46533545	     -1.71579211	    -21.73677331	     29.06288576	     39.15417163	      0.18947388	     -1.03008636	      0.22775819	     -0.51504318	     10.81482424	      0.88063127	    -34.82452437	    -50.52746102	     76.10586114	     13.87037482	     85.47581059	     93.24230333	     86.25099672	      5.81143158	     83.33948139	     54.80131014	     90.51477133	    -12.25279166	     85.57589816	     56.07075020	    102.72534106	    -14.31997644	     70.11813145	      5.73348600	      0.00086131	     -0.03093105	     -0.00483655	      0.01657201	     -0.01809508	     -0.00755982	      0.00465695	     -0.06677069	     -0.00320408	      0.00769519	     -0.18351256	     -0.00038015	     -0.00469849	      0.00134595	      0.00015230	      0.00016536	      0.00006614	      0.00033071	      0.00021166	      0.00063497	      0.00035717	      0.00003159	     -0.00020539	     -0.00024647	      0.00250637	      0.00879352	      0.00611723	     -0.00819879	      0.01979604	     -0.01877650	      0.00250637	      0.00879352	      0.00611723	      0.00055225	      0.01835170	     -0.00964314	      0.00395922	      0.00488997	      0.01599515	      0.00000000	      0.00781992	      0.00000000	     -0.00717925	     -0.03317749	     -0.00644811	      0.01475829	     -0.00048587	     -0.00392460	     -0.00089210	      0.01495323	     -0.00611723	      0.00246389	      0.02158024	     -0.01784193	     -0.00598979	      0.01295664	     -0.00548002	     -0.01248935	      0.02735762	     -0.03062864	     -0.02344939	      0.01448595	     -0.00734917	     -0.01554796	      0.03160570	     -0.03827518
      0.40000000	     -0.32305386	      0.13683037	     -0.13683037	      0.32305386	     -0.06541184	      0.52863545	      0.23761800	     -0.23761800	     -0.52863545	      0.06541184	     98.30890186	     76.48587361	     -1.71581402	    -21.74119778	     29.07213908	     39.15272077	      0.18949937	     -1.03011386	      0.22778472	     -0.51505693	     10.81529518	      0.87982158	    -34.82444875	    -50.52745646	     76.10596403	     13.87063213	     85.47574057	     93.24262199	     86.25169441	      5.81156194	     83.33916214	     54.80119117	     90.51629322	    -12.25290319	     85.57648846	     56.07059728	    102.72487032	    -14.32015911	     70.11781491	      5.73354265	      0.00086162	     -0.03093211	     -0.00483672	      0.01657200	     -0.01809759	     -0.00755997	      0.00465706	     -0.06677063	     -0.00320396	      0.00769505	     -0.18351259	     -0.00038013	     -0.00469832	      0.00134589	      0.00015231	      0.00016530	      0.00006612	      0.00033060	      0.00021159	      0.00063476	      0.00035705	      0.00003159	     -0.00020540	     -0.00024648	      0.00250704	      0.00879588	      0.00611888	     -0.00820099	      0.01980136	     -0.01878155	      0.00250704	      0.00879588	      0.00611888	      0.00055240	      0.01835663	     -0.00964573	      0.00395999	      0.00489128	      0.01599703	      0.00000000	      0.00782415	      0.00000000	     -0.00718118	     -0.03318640	     -0.00645162	      0.01476074	     -0.00048601	     -0.00392625	     -0.00089234	      0.01495725	     -0.00611888	      0.00246455	      0.02158603	     -0.01784672	     -0.00599140	      0.01296012	     -0.00548149	     -0.01249270	      0.02736497	     -0.03063687	     -0.02345569	      0.01448984	     -0.00735115	     -0.01555214	      0.03161419	     -0.03828546
      0.43333333	     -0.32596023	      0.13806137	     -0.13806137	      0.32596023	     -0.06600032	      0.53339134	      0.23975574	     -0.23975574	     -0.53339134	      0.06600032	     97.51104369	     77.17398258	     -1.70188877	    -18.25482610	     29.38642357	     36.85746635	      0.22549430	     -0.98044195	      0.26440843	     -0.49022097	     10.81820708	     -0.12922162	    -34.45659356	    -49.77546406	     75.19675850	     13.88579626	     85.67238372	     95.06585348	     85.62835596	      6.03286025	     83.50790564	     55.64097874	     90.52603436	    -12.26415550	     85.63358324	     52.96143229	    101.91115451	    -14.30741667	     69.57911412	      5.77402230	      0.00087201	     -0.03096813	     -0.00484252	      0.01655727	     -0.01818297	     -0.00779860	      0.00482665	     -0.06666096	     -0.00301907	      0.00746537	     -0.18355904	     -0.00036040	     -0.00442289	      0.00125393	      0.00016631	      0.00019812	      0.00007925	      0.00039624	      0.00025359	      0.00076078	      0.00042794	      0.00003158	     -0.00020544	     -0.00024653	      0.00252959	      0.00887502	      0.00617392	     -0.00827477	      0.01997950	     -0.01895052	      0.00252959	      0.00887502	      0.00617392	      0.00055737	      0.01852177	     -0.00973250	      0.00398587	      0.00493528	      0.01605963	      0.00000000	      0.00796659	      0.00000000	     -0.00724579	     -0.03348496	     -0.00656985	      0.01274893	     -0.00037895	     -0.00271661	     -0.00090036	      0.01509181	     -0.00617392	      0.00248672	      0.02178023	     -0.01800728	     -0.00604530	      0.01307671	     -0.00553081	     -0.01260509	      0.02761116	     -0.03091249	     -0.02366671	      0.01462019	     -0.00741728	     -0.01569206	      0.03189861	     -0.03862990
      0.46666667	     -0.32607331	      0.13810927	     -0.13810927	      0.32607331	     -0.06602321	      0.53357638	      0.23983891	     -0.23983891	     -0.53357638	      0.06602321	     97.50962113	     77.20075495	     -1.70186394	    -18.26198204	     29.39435679	     36.85603442	      0.22553336	     -0.98049254	      0.26444691	     -0.49024627	     10.81809092	     -0.12970909	    -34.45669701	    -49.77553355	     75.19791229	     13.88604776	     85.67223855	     95.06563711	     85.62892674	      6.03312091	     83.50750132	     55.64077388	     90.52676982	    -12.26431017	     85.63444080	     52.96135033	    101.91041222	    -14.30759107	     69.57912318	      5.77406076	      0.00087227	     -0.03096904	     -0.00484266	      0.01655723	     -0.01818512	     -0.00779872	      0.00482675	     -0.06666090	     -0.00301895	      0.00746523	     -0.18355906	     -0.00036038	     -0.00442271	      0.00125388	      0.00016631	      0.00019808	      0.00007923	      0.00039617	      0.00025355	      0.00076064	      0.00042786	      0.00003158	     -0.00020544	     -0.00024652	      0.00253047	      0.00887809	      0.00617607	     -0.00827764	      0.01998643	     -0.01895709	      0.00253047	      0.00887809	      0.00617607	      0.00055756	      0.01852820	     -0.00973588	      0.00398688	      0.00493700	      0.01606204	      0.00000000	      0.00797216	      0.00000000	     -0.00724830	     -0.03349658	     -0.00657447	      0.01275312	     -0.00037917	     -0.00271903	     -0.00090068	      0.01509705	     -0.00617607	      0.00248758	      0.02178779	     -0.01801352	     -0.00604740	      0.01308125	     -0.00553273	     -0.01260947	      0.02762074	     -0.03092322	     -0.02367492	      0.01462527	     -0.00741986	     -0.01569750	      0.03190967	     -0.03864330
